<?xml version="1.0" standalone="no"?>
<!DOCTYPE svg PUBLIC "-//W3C//DTD SVG 20010904//EN"
 "http://www.w3.org/TR/2001/REC-SVG-20010904/DTD/svg10.dtd">
<svg version="1.0" xmlns="http://www.w3.org/2000/svg"
 width="3471.000000pt" height="2025.000000pt" viewBox="0 0 3471.000000 2025.000000"
 preserveAspectRatio="xMidYMid meet">
<metadata>
Created by potrace 1.10, written by Peter Selinger 2001-2011
</metadata>
<g transform="translate(0.000000,2025.000000) scale(0.100000,-0.100000)"
fill="#000000" stroke="none">
<path d="M162 20168 c-17 -17 -16 -238 1 -261 11 -15 51 -17 427 -19 l415 -3
5 -3645 5 -3645 129 -3 c70 -1 133 2 140 7 13 11 16 7547 2 7569 -10 17 -1106
18 -1124 0z"/>
<path d="M1483 19463 c-10 -4 -13 -629 -13 -3078 0 -3029 0 -3074 19 -3085 14
-7 1780 -10 5628 -10 5846 1 5711 0 5808 40 112 46 165 80 241 156 66 65 90
97 124 167 76 157 70 -58 70 2729 0 2738 3 2578 -57 2706 -77 165 -202 280
-379 350 l-69 27 -5680 2 c-3124 1 -5686 -1 -5692 -4z m3792 -688 c137 -15
256 -35 315 -53 19 -5 62 -18 95 -27 33 -9 75 -23 93 -31 18 -8 41 -14 50 -14
10 0 27 -7 38 -15 10 -8 25 -15 33 -15 21 0 288 -134 349 -175 30 -19 56 -35
58 -35 2 0 57 -39 122 -87 135 -101 370 -330 459 -448 65 -86 145 -202 156
-225 4 -8 23 -42 42 -75 48 -82 114 -222 148 -310 34 -92 45 -123 60 -170 93
-310 127 -653 93 -951 -10 -82 -24 -176 -32 -210 -8 -33 -14 -69 -14 -80 0
-11 -6 -40 -14 -65 -7 -24 -21 -71 -31 -104 -36 -124 -75 -221 -155 -385 -52
-109 -57 -116 -102 -188 -16 -24 -28 -45 -28 -48 0 -10 -186 -252 -234 -304
-367 -398 -808 -646 -1321 -744 -330 -63 -714 -51 -1001 30 -28 8 -58 14 -67
14 -9 0 -31 6 -49 14 -18 8 -60 22 -93 32 -33 10 -69 24 -80 31 -11 7 -26 13
-33 13 -19 0 -267 122 -315 154 -21 14 -40 26 -42 26 -7 0 -99 63 -185 128
-156 116 -300 260 -463 461 -100 124 -256 403 -324 581 -121 315 -169 606
-159 950 9 303 34 447 123 720 37 111 144 346 194 425 10 17 22 37 26 45 13
27 117 176 179 256 167 215 457 462 690 589 27 14 67 36 89 48 101 56 350 151
490 186 248 64 571 85 840 56z m5170 0 c178 -19 230 -29 420 -84 78 -22 124
-38 172 -58 17 -7 34 -13 37 -13 7 0 134 -57 156 -70 8 -5 35 -19 60 -32 237
-118 505 -331 696 -553 57 -66 165 -207 191 -250 7 -11 31 -51 53 -88 92 -151
164 -309 220 -482 47 -144 48 -145 97 -385 25 -124 25 -626 0 -750 -50 -241
-53 -254 -96 -385 -119 -360 -316 -681 -581 -946 -139 -139 -353 -311 -440
-352 -8 -4 -42 -23 -75 -42 -57 -33 -173 -91 -242 -121 -18 -8 -48 -20 -65
-28 -30 -13 -65 -25 -183 -62 -388 -121 -847 -131 -1250 -27 -181 46 -306 94
-480 181 -141 71 -138 69 -265 154 -386 259 -711 656 -880 1078 -12 30 -28 70
-36 88 -8 18 -14 39 -14 47 0 8 -6 29 -14 47 -8 18 -22 62 -31 98 -72 279 -79
341 -79 645 0 304 7 366 79 645 9 36 23 80 31 98 8 18 14 39 14 47 0 8 7 31
16 52 9 21 20 47 24 58 37 96 120 261 171 340 10 17 22 37 26 45 41 86 237
328 362 449 92 88 347 291 365 291 2 0 28 16 58 35 63 43 329 175 350 175 8 0
23 7 34 15 10 8 27 15 36 15 10 0 32 6 50 14 100 43 321 93 473 107 55 5 107
11 115 13 39 9 309 4 425 -9z"/>
<path d="M4831 18339 c-56 -11 -68 -22 -74 -67 -2 -20 -9 -64 -15 -97 -59
-329 -46 -732 35 -1063 8 -34 16 -86 17 -114 1 -45 -2 -53 -19 -56 -11 -2 -39
-17 -63 -33 -24 -16 -51 -29 -62 -29 -10 0 -63 48 -124 111 -135 142 -247 290
-373 494 -17 27 -97 190 -118 240 -17 41 -38 103 -70 210 -10 33 -22 64 -26
69 -17 20 -314 -241 -404 -354 -11 -14 -36 -46 -55 -70 -100 -126 -256 -406
-245 -438 13 -34 335 -287 415 -325 8 -4 38 -21 65 -37 80 -48 292 -150 385
-185 25 -10 61 -23 80 -31 19 -7 60 -21 90 -30 30 -9 75 -25 100 -34 l45 -16
3 -85 c1 -46 -2 -90 -6 -97 -8 -12 -75 -33 -167 -51 -22 -5 -60 -13 -85 -19
-153 -38 -248 -47 -495 -46 -255 0 -306 5 -475 50 -30 8 -66 15 -80 17 -23 2
-25 -1 -24 -40 1 -44 17 -154 35 -233 6 -25 14 -63 19 -85 11 -52 35 -133 48
-165 6 -14 20 -50 32 -80 50 -124 133 -281 204 -384 46 -67 63 -73 136 -46
132 49 139 51 275 116 208 99 459 268 625 420 24 22 48 44 55 49 6 6 34 32 62
59 l52 49 53 -35 c29 -19 64 -41 77 -48 20 -10 23 -17 17 -48 -17 -105 -82
-316 -122 -395 -8 -16 -14 -33 -14 -38 0 -17 -93 -204 -151 -301 -72 -122
-164 -243 -251 -332 -69 -70 -78 -88 -55 -103 24 -15 160 -73 173 -73 7 0 28
-6 46 -14 84 -36 235 -70 409 -91 154 -20 420 -18 441 3 15 15 47 137 48 182
0 19 7 71 15 115 17 95 20 456 4 555 -5 36 -14 101 -19 145 -11 96 -36 239
-50 279 -6 16 -10 46 -10 67 0 31 4 39 28 48 35 15 71 36 85 50 27 27 55 10
144 -86 50 -54 103 -114 119 -133 16 -19 31 -37 34 -40 4 -3 33 -41 66 -85
108 -143 204 -308 276 -474 27 -61 88 -251 88 -273 0 -24 16 -31 42 -17 91 48
333 279 434 414 108 144 244 383 244 429 0 32 -209 208 -365 306 -146 92 -342
191 -505 255 -25 9 -56 22 -70 27 -14 6 -38 14 -55 18 -16 5 -46 14 -65 20
-19 7 -54 19 -77 27 l-41 14 0 90 c1 79 4 92 22 105 11 7 30 14 41 14 12 0 41
6 66 14 50 15 152 37 289 63 75 14 149 17 350 17 260 0 320 -6 460 -49 87 -27
95 -25 98 20 7 75 -53 359 -103 495 -30 80 -88 215 -112 259 -79 144 -147 247
-170 255 -18 7 -142 -35 -290 -97 -189 -81 -454 -245 -614 -381 -87 -74 -148
-128 -197 -175 -53 -49 -54 -50 -80 -35 -99 55 -127 73 -130 82 -1 5 7 45 19
88 12 44 25 93 29 109 25 92 92 265 163 415 72 153 228 377 342 493 67 68 76
91 38 103 -10 3 -31 12 -48 19 -29 13 -75 31 -152 59 -38 13 -113 35 -188 55
-162 42 -504 64 -624 40z m251 -1751 c53 -16 120 -82 136 -134 16 -55 15 -92
-3 -145 -52 -145 -236 -186 -345 -76 -79 78 -83 207 -9 291 59 67 137 89 221
64z"/>
<path d="M10013 18341 c-70 -12 -70 -12 -109 -236 -22 -121 -24 -597 -4 -705
6 -36 15 -96 20 -135 5 -38 19 -113 31 -165 32 -143 33 -140 -29 -171 -30 -14
-59 -32 -65 -38 -27 -27 -55 -10 -148 88 -146 153 -207 229 -311 387 -118 179
-239 452 -263 597 -8 52 -27 48 -126 -27 -160 -120 -311 -283 -426 -458 -67
-103 -173 -300 -173 -324 0 -7 17 -30 38 -50 59 -58 254 -210 320 -249 9 -6
35 -22 57 -36 107 -69 387 -209 418 -209 7 0 22 -7 33 -15 10 -8 29 -15 41
-15 12 0 24 -4 28 -9 3 -5 20 -13 38 -17 17 -3 45 -12 62 -19 16 -7 56 -21 88
-30 l57 -18 0 -93 c0 -51 -4 -96 -10 -99 -13 -8 -114 -35 -165 -45 -22 -4 -60
-12 -85 -18 -155 -38 -247 -47 -495 -47 -249 1 -336 10 -455 47 -61 19 -98 26
-109 19 -13 -8 2 -190 19 -235 5 -15 10 -40 10 -55 0 -15 6 -47 14 -72 7 -24
21 -71 31 -104 10 -33 24 -73 30 -90 41 -102 80 -191 85 -200 4 -5 24 -41 45
-80 20 -38 44 -77 51 -86 8 -8 14 -20 15 -25 0 -5 15 -29 33 -54 43 -59 51
-59 201 -2 317 119 626 316 910 581 99 91 86 88 153 42 33 -23 64 -41 70 -41
19 0 22 -34 6 -95 -8 -33 -19 -76 -24 -95 -9 -40 -17 -63 -77 -225 -94 -253
-263 -529 -432 -704 -33 -35 -61 -71 -61 -80 0 -15 72 -50 220 -106 81 -30
240 -66 385 -87 122 -18 447 -18 468 0 27 23 62 218 77 433 18 257 -22 671
-85 871 -17 53 -12 74 18 84 12 4 41 19 65 35 24 16 51 29 61 29 25 0 214
-199 305 -320 107 -143 167 -237 242 -380 56 -107 126 -299 139 -378 4 -24 13
-46 21 -49 32 -12 294 217 418 366 35 42 90 116 122 166 67 103 164 290 164
316 0 49 -293 280 -495 391 -74 41 -222 113 -285 138 -30 12 -62 26 -72 30 -9
5 -67 26 -130 46 -62 20 -132 44 -155 53 l-43 16 0 87 c0 78 2 88 22 102 12 9
32 16 43 16 12 0 41 6 66 14 50 15 152 38 289 63 75 14 150 17 350 17 261 0
304 -4 466 -50 28 -8 63 -14 79 -14 27 0 28 0 20 48 -3 26 -11 79 -16 117 -9
71 -25 147 -52 245 -58 206 -186 466 -306 620 l-19 24 -54 -18 c-200 -67 -409
-166 -546 -257 -24 -16 -45 -29 -48 -29 -21 0 -412 -316 -468 -379 -26 -29
-44 -27 -111 14 -32 19 -62 36 -68 38 -14 4 -10 70 7 122 7 22 21 67 31 100
36 125 76 225 155 385 55 110 58 116 104 195 24 42 64 99 103 150 65 84 120
148 157 185 69 67 67 70 -69 125 -87 35 -229 78 -325 99 -195 41 -457 58 -587
37z m278 -1769 c28 -14 56 -39 77 -70 28 -42 32 -55 32 -115 0 -78 -16 -117
-67 -163 -73 -65 -190 -71 -270 -14 -11 8 -34 36 -52 61 -27 41 -31 55 -31
113 0 53 5 74 24 105 64 101 180 135 287 83z"/>
<path d="M556 18594 c-50 -18 -63 -30 -87 -75 -18 -37 -19 -68 -19 -813 0
-813 0 -803 44 -854 37 -42 79 -52 212 -52 l124 0 2 886 c2 487 0 894 -4 905
-7 17 -17 19 -120 18 -71 0 -127 -6 -152 -15z"/>
<path d="M558 15962 c-20 -10 -46 -26 -58 -37 -51 -46 -50 -31 -50 -864 l0
-776 23 -40 c13 -22 40 -49 62 -62 36 -20 54 -23 168 -23 l127 0 -2 908 -3
907 -115 2 c-92 2 -122 -1 -152 -15z"/>
<path d="M2427 13113 c-4 -3 -7 -146 -7 -317 0 -300 1 -311 21 -340 12 -17 37
-41 56 -53 l34 -23 2434 0 2433 0 43 33 c72 55 78 85 79 404 0 234 -2 274 -16
287 -14 14 -259 16 -2543 16 -1390 0 -2531 -3 -2534 -7z"/>
<path d="M7797 13113 c-4 -3 -7 -143 -7 -311 0 -292 1 -306 21 -339 12 -18 37
-45 57 -58 l37 -25 500 0 500 0 37 25 c20 13 45 40 57 59 21 33 21 43 19 342
l-3 309 -606 3 c-333 1 -609 -1 -612 -5z"/>
</g>
</svg>
